<?xml version="1.0" encoding="UTF-8"?>
<svg xmlns="http://www.w3.org/2000/svg" width="1280" height="800" viewBox="0 0 1280 800" role="img" aria-label="وب‌اپلیکیشن - حالت آفلاین"><title>وب‌اپلیکیشن - حالت آفلاین</title><defs><radialGradient id="gk20" cx=".5" cy="0" r="1"><stop offset="0" stop-color="#0e2a33"/><stop offset="1" stop-color="#08131a"/></radialGradient><linearGradient id="pdk20" x1="0" y1="0" x2="1" y2="1"><stop offset="0" stop-color="#06b6d4"/><stop offset="1" stop-color="#6366f1"/></linearGradient></defs><rect width="1280" height="800" fill="url(#gk20)"/><ellipse cx="200" cy="150" rx="300" ry="220" fill="#06b6d4" opacity=".2"/><ellipse cx="1100" cy="680" rx="300" ry="200" fill="#6366f1" opacity=".2"/><rect x="772" y="52" width="366" height="696" rx="54" fill="#04060c" opacity="1" stroke="#33415f" stroke-width="2"/><clipPath id="pck20"><rect x="780" y="60" width="350" height="680" rx="44"/></clipPath><g clip-path="url(#pck20)"><rect x="780" y="60" width="350" height="680" rx="44" fill="#101728" opacity="1"/><rect x="780" y="116" width="350" height="60" rx="12" fill="rgba(245,158,11,.16)" opacity="1" stroke="#f59e0b" stroke-width="1.5"/><text x="1110" y="142" font-family="Vazirmatn,Tahoma,Arial,sans-serif" font-size="14.5" font-weight="800" fill="#fbbf24" text-anchor="end" opacity="1">⚠ اتصال اینترنت قطع است</text><text x="1110" y="162" font-family="Vazirmatn,Tahoma,Arial,sans-serif" font-size="11.5" font-weight="400" fill="#dbe3f5" text-anchor="end" opacity="1">حالت آفلاین فعال شد — نگران نباشید</text><text x="1110" y="206" font-family="Vazirmatn,Tahoma,Arial,sans-serif" font-size="16" font-weight="800" fill="#fff" text-anchor="end" opacity="1">محتوای ذخیره‌شده</text><rect x="800" y="220" width="310" height="64" rx="12" fill="#1a2440" opacity="1"/><text x="1094" y="247" font-family="Vazirmatn,Tahoma,Arial,sans-serif" font-size="13.5" font-weight="700" fill="#fff" text-anchor="end" opacity="1">سفارش‌های من</text><text x="1094" y="268" font-family="Vazirmatn,Tahoma,Arial,sans-serif" font-size="11.5" font-weight="400" fill="#8fa0c2" text-anchor="end" opacity="1">۱۲ مورد — قابل مشاهده آفلاین</text><circle cx="824" cy="252" r="13" fill="#10b981" opacity="0.2"/><text x="824" y="257" font-family="Vazirmatn,Tahoma,Arial,sans-serif" font-size="13" font-weight="800" fill="#10b981" text-anchor="middle" opacity="1">✓</text><rect x="800" y="296" width="310" height="64" rx="12" fill="#1a2440" opacity="1"/><text x="1094" y="323" font-family="Vazirmatn,Tahoma,Arial,sans-serif" font-size="13.5" font-weight="700" fill="#fff" text-anchor="end" opacity="1">محصولات نشان‌شده</text><text x="1094" y="344" font-family="Vazirmatn,Tahoma,Arial,sans-serif" font-size="11.5" font-weight="400" fill="#8fa0c2" text-anchor="end" opacity="1">۸ مورد</text><circle cx="824" cy="328" r="13" fill="#10b981" opacity="0.2"/><text x="824" y="333" font-family="Vazirmatn,Tahoma,Arial,sans-serif" font-size="13" font-weight="800" fill="#10b981" text-anchor="middle" opacity="1">✓</text><rect x="800" y="372" width="310" height="64" rx="12" fill="#1a2440" opacity="1"/><text x="1094" y="399" font-family="Vazirmatn,Tahoma,Arial,sans-serif" font-size="13.5" font-weight="700" fill="#fff" text-anchor="end" opacity="1">پیام‌های خوانده‌نشده</text><text x="1094" y="420" font-family="Vazirmatn,Tahoma,Arial,sans-serif" font-size="11.5" font-weight="400" fill="#8fa0c2" text-anchor="end" opacity="1">۳ پیام</text><circle cx="824" cy="404" r="13" fill="#10b981" opacity="0.2"/><text x="824" y="409" font-family="Vazirmatn,Tahoma,Arial,sans-serif" font-size="13" font-weight="800" fill="#10b981" text-anchor="middle" opacity="1">✓</text><rect x="800" y="508" width="310" height="92" rx="14" fill="url(#pdk20)" opacity="1"/><text x="1094" y="538" font-family="Vazirmatn,Tahoma,Arial,sans-serif" font-size="14" font-weight="800" fill="#fff" text-anchor="end" opacity="1">۳ تغییر در انتظار همگام‌سازی</text><text x="1094" y="560" font-family="Vazirmatn,Tahoma,Arial,sans-serif" font-size="12" font-weight="400" fill="#e0e7ff" text-anchor="end" opacity="1">بلافاصله پس از اتصال ارسال می‌شوند</text><text x="1094" y="584" font-family="Vazirmatn,Tahoma,Arial,sans-serif" font-size="11.5" font-weight="400" fill="#e0e7ff" text-anchor="end" opacity="1">✓ صف ارسال امن است</text><text x="1094" y="630" font-family="Vazirmatn,Tahoma,Arial,sans-serif" font-size="13.5" font-weight="400" fill="#dbe3f5" text-anchor="end" opacity="1">ذخیره‌سازی آفلاین</text><rect x="800" y="610" width="46" height="26" rx="13" fill="#10b981" opacity="1"/><circle cx="833" cy="623" r="9" fill="#fff" opacity="1"/><text x="1094" y="656" font-family="Vazirmatn,Tahoma,Arial,sans-serif" font-size="11.5" font-weight="400" fill="#8fa0c2" text-anchor="end" opacity="1">فضای استفاده‌شده: ۴۸ مگابایت</text><rect x="800" y="666" width="310" height="10" rx="5" fill="#2b3a5e" opacity="1"/><rect x="1010.8" y="666" width="99.2" height="10" rx="5" fill="#06b6d4" opacity="1"/><rect x="780" y="644" width="350" height="96" rx="0" fill="#151b2e" opacity="1"/><text x="1085" y="692" font-family="Vazirmatn,Tahoma,Arial,sans-serif" font-size="12" font-weight="400" fill="#5f6f92" text-anchor="middle" opacity="1">خانه</text><circle cx="1085" cy="674" r="5" fill="#2b3a5e" opacity="1"/><text x="993.8235294117648" y="692" font-family="Vazirmatn,Tahoma,Arial,sans-serif" font-size="12" font-weight="400" fill="#5f6f92" text-anchor="middle" opacity="1">آمار</text><circle cx="993.8235294117648" cy="674" r="5" fill="#2b3a5e" opacity="1"/><text x="902.6470588235294" y="692" font-family="Vazirmatn,Tahoma,Arial,sans-serif" font-size="12" font-weight="400" fill="#5f6f92" text-anchor="middle" opacity="1">پیام‌ها</text><circle cx="902.6470588235294" cy="674" r="5" fill="#2b3a5e" opacity="1"/><text x="811.4705882352941" y="692" font-family="Vazirmatn,Tahoma,Arial,sans-serif" font-size="12" font-weight="700" fill="#a5b4fc" text-anchor="middle" opacity="1">پروفایل</text><circle cx="811.4705882352941" cy="674" r="5" fill="#6366f1" opacity="1"/></g><rect x="903" y="74" width="104" height="26" rx="13" fill="#04060c" opacity="1"/><text x="810" y="96" font-family="Vazirmatn,Tahoma,Arial,sans-serif" font-size="14" font-weight="700" fill="#fff" text-anchor="start" opacity="1">۹:۴۱</text><rect x="1064" y="82" width="4" height="8" rx="1" fill="#fff" opacity="1"/><rect x="1070" y="80" width="4" height="10" rx="1" fill="#fff" opacity="1"/><rect x="1076" y="78" width="4" height="12" rx="1" fill="#fff" opacity="1"/><rect x="1082" y="76" width="4" height="14" rx="1" fill="#fff" opacity="0.4"/><rect x="1090" y="80" width="22" height="11" rx="3" fill="none" opacity="1" stroke="#fff" stroke-width="1.5"/><rect x="1092" y="82" width="14" height="7" rx="2" fill="#34d399" opacity="1"/><rect x="900" y="728" width="110" height="5" rx="3" fill="rgba(255,255,255,.5)" opacity="1"/><text x="630" y="320" font-family="Vazirmatn,Tahoma,Arial,sans-serif" font-size="40" font-weight="800" fill="#fff" text-anchor="end" opacity="1">آفلاین هم کار می‌کند</text><text x="630" y="372" font-family="Vazirmatn,Tahoma,Arial,sans-serif" font-size="18" font-weight="400" fill="#99f6e4" text-anchor="end" opacity="1">داده‌ها روی گوشی ذخیره می‌شوند</text><text x="630" y="424" font-family="Vazirmatn,Tahoma,Arial,sans-serif" font-size="16" font-weight="400" fill="#8fa0c2" text-anchor="end" opacity="1">✓ مشاهده سفارش‌ها بدون اینترنت</text><text x="630" y="458" font-family="Vazirmatn,Tahoma,Arial,sans-serif" font-size="16" font-weight="400" fill="#8fa0c2" text-anchor="end" opacity="1">✓ ثبت تغییرات و ارسال خودکار بعدی</text></svg>
